<?xml version="1.0" standalone="no"?>
<!DOCTYPE svg PUBLIC "-//W3C//DTD SVG 20010904//EN"
 "http://www.w3.org/TR/2001/REC-SVG-20010904/DTD/svg10.dtd">
<svg version="1.0" xmlns="http://www.w3.org/2000/svg"
 width="649.000000pt" height="547.000000pt" viewBox="0 0 649.000000 547.000000"
 preserveAspectRatio="xMidYMid meet">

<g transform="translate(0.000000,547.000000) scale(0.100000,-0.100000)"
fill="#000000" stroke="none">
<path d="M3045 5299 c-334 -25 -689 -134 -1000 -306 -572 -316 -1012 -868
-1195 -1498 -314 -1078 136 -2249 1095 -2848 280 -175 654 -309 979 -353 159
-21 442 -21 606 1 551 72 1041 315 1441 714 389 389 626 858 715 1416 24 153
30 518 10 686 -48 413 -226 852 -487 1199 -512 680 -1329 1054 -2164 989z
m480 -783 c182 -33 360 -98 526 -191 159 -90 399 -278 399 -314 0 -7 -29 -26
-65 -42 -292 -132 -632 -155 -1147 -78 -112 17 -250 37 -308 46 -160 24 -520
24 -625 -1 -96 -22 -155 -52 -155 -79 0 -49 134 -130 308 -187 282 -91 607
-111 1002 -60 171 22 226 25 235 11 7 -13 -18 -29 -245 -161 -334 -194 -571
-354 -770 -520 -462 -385 -785 -847 -843 -1210 -18 -111 -17 -114 55 -106 204
21 467 144 663 309 255 215 432 442 708 909 142 241 203 324 351 477 127 132
299 244 416 270 60 13 69 1 33 -46 -65 -82 -143 -229 -198 -368 l-31 -79 -67
-12 c-164 -31 -322 -147 -439 -324 -156 -234 -219 -492 -189 -764 25 -223 135
-425 273 -498 61 -33 225 -33 312 0 154 57 318 196 411 347 128 207 191 469
166 694 -25 228 -115 397 -262 487 -32 20 -59 43 -59 50 0 25 62 180 100 251
21 40 58 98 81 130 51 71 196 214 270 267 66 47 162 96 187 96 12 0 34 -26 66
-80 347 -584 338 -1365 -22 -1925 -258 -402 -693 -692 -1142 -762 -137 -21
-396 -23 -515 -4 -289 46 -522 145 -768 326 l-118 87 -112 -26 c-159 -37 -403
-58 -436 -37 -28 18 49 391 114 553 14 35 13 40 -15 108 -38 88 -92 275 -117
400 -26 135 -26 521 0 665 18 98 60 249 97 350 90 248 281 505 509 687 231
184 506 311 767 352 55 9 110 18 124 20 58 10 389 -2 475 -18z m239 -1585 c30
-33 17 -71 -34 -105 -145 -96 -263 -262 -325 -456 -36 -113 -46 -328 -21 -434
21 -90 67 -181 122 -246 24 -28 44 -58 44 -66 0 -22 -47 -47 -76 -40 -61 16
-148 139 -188 266 -37 118 -49 239 -36 359 13 120 57 276 104 370 89 174 283
371 367 371 14 0 34 -9 43 -19z"/>
</g>
</svg>
