<svg version="1.0" xmlns="http://www.w3.org/2000/svg" width="866.667" height="547.831" viewBox="0 0 650 547.831">
  <path d="M304.969 16.282c-33.453 2.505-69.007 13.422-100.155 30.647-57.287 31.65-101.356 86.933-119.685 150.031C53.683 304.926 98.75 422.208 194.8 482.2c28.045 17.526 65.501 30.948 98.05 35.354 15.926 2.101 44.269 2.101 60.692-.102 55.186-7.211 104.26-31.547 144.322-71.511 38.958-38.959 62.695-85.931 71.609-141.817 2.403-15.324 3.005-51.88 1.002-68.706-4.81-41.365-22.634-85.332-48.777-120.084C470.418 47.23 388.595 9.77 304.965 16.282zm48.072 78.422c18.227 3.306 36.055 9.814 52.682 19.131 15.926 9.016 39.96 27.841 39.96 31.45 0 .7-2.904 2.602-6.511 4.206-29.247 13.222-63.298 15.523-114.876 7.81-11.22-1.702-25.04-3.705-30.847-4.605-16.024-2.403-52.08-2.403-62.598.101-9.614 2.204-15.523 5.209-15.523 7.913 0 4.907 13.422 13.019 30.847 18.728 28.245 9.113 60.794 11.117 100.355 6.01 17.127-2.203 22.633-2.504 23.537-1.103.7 1.303-1.804 2.903-24.539 16.126-33.453 19.428-57.19 35.456-77.119 52.079-46.272 38.559-78.621 84.831-84.428 121.187-1.804 11.117-1.702 11.419 5.51 10.616 20.43-2.1 46.772-14.423 66.4-30.948 25.541-21.533 43.267-44.268 70.91-91.041 14.22-24.136 20.331-32.451 35.154-47.775 12.722-13.222 29.947-24.437 41.663-27.043 6.01-1.303 6.91-.102 3.306 4.605-6.511 8.214-14.322 22.935-19.831 36.858l-3.103 7.912-6.711 1.201c-16.427 3.103-32.252 14.721-43.968 32.451-15.624 23.436-21.932 49.278-18.927 76.517 2.504 22.335 13.52 42.566 27.34 49.876 6.109 3.306 22.536 3.306 31.25 0 15.426-5.71 31.849-19.632 41.162-34.752 12.82-20.732 19.13-46.973 16.626-69.508-2.504-22.837-11.516-39.76-26.24-48.777-3.205-2.003-5.91-4.308-5.91-5.008 0-2.505 6.21-18.028 10.014-25.138 2.101-4.007 5.807-9.814 8.112-13.019 5.107-7.11 19.632-21.432 27.043-26.742 6.61-4.707 16.224-9.614 18.728-9.614 1.202 0 3.405 2.602 6.61 8.014 34.751 58.489 33.851 136.71-2.204 192.797-25.838 40.262-69.406 69.308-114.375 76.316-13.719 2.102-39.663 2.305-51.578.4-28.945-4.606-52.278-14.522-76.92-32.651l-11.817-8.714-11.218 2.602c-15.927 3.705-40.364 5.807-43.666 3.705-2.806-1.804 4.907-39.162 11.418-55.385 1.401-3.506 1.303-4.007-1.503-10.816-3.807-8.812-9.215-27.544-11.72-40.062-2.601-13.52-2.601-52.18 0-66.604 1.805-9.814 6.011-24.938 9.717-35.054 9.016-24.84 28.143-50.576 50.98-68.807C239.366 111.722 266.91 99 293.05 94.896c5.51-.9 11.015-1.804 12.42-2.003 5.807-1.002 38.958.2 47.575 1.804zm23.936 158.745c3.005 3.307 1.702 7.11-3.404 10.515-14.521 9.614-26.339 26.24-32.55 45.67-3.603 11.316-4.605 32.85-2.1 43.466 2.1 9.015 6.71 18.129 12.22 24.636 2.403 2.806 4.406 5.807 4.406 6.61 0 2.203-4.707 4.707-7.61 4.007-6.109-1.605-14.823-13.923-18.83-26.64-3.706-11.818-4.907-23.937-3.604-35.958s5.709-27.642 10.416-37.056c8.914-17.425 28.343-37.159 36.756-37.159 1.4 0 3.404.9 4.308 1.902z"/>
</svg>
